<svg xmlns="http://www.w3.org/2000/svg" viewBox="0 0 200 190">
<defs>
  <radialGradient id="halo" cx="50%" cy="42%" r="55%">
    <stop offset="0" stop-color="#c8a96e" stop-opacity=".12"/>
    <stop offset="1" stop-color="#c8a96e" stop-opacity="0"/>
  </radialGradient>
</defs>
<rect width="200" height="190" rx="14" fill="#0d0a08"/>
<circle cx="100" cy="92" r="78" fill="url(#halo)"/>
<g fill="none" stroke="#bda06f" stroke-width="4" stroke-linecap="round" stroke-linejoin="round">
  <path d="M68 65c-39-4-56 29-35 52 18 19 47 5 41-21M132 65c39-4 56 29 35 52-18 19-47 5-41-21"/><path d="M64 89c0-31 72-31 72 0v50c-19 26-53 26-72 0Z"/><path d="M82 119h3m30 0h3M91 139h18"/>
</g>
<circle cx="100" cy="92" r="72" fill="none" stroke="#bda06f" stroke-opacity=".08"/>
<path d="M30 163H170" stroke="#bda06f" stroke-opacity=".15"/>
<text x="100" y="180" fill="#bda06f" fill-opacity=".55" font-size="7" text-anchor="middle" font-family="Georgia,serif" letter-spacing="1.8">BLACK RAM</text>
</svg>